<?xml version="1.0" encoding="utf-8"?>
<!-- Generator: Adobe Illustrator 16.0.0, SVG Export Plug-In . SVG Version: 6.00 Build 0)  -->
<!DOCTYPE svg PUBLIC "-//W3C//DTD SVG 1.1//EN" "http://www.w3.org/Graphics/SVG/1.1/DTD/svg11.dtd">
<svg version="1.1" id="Camada_1" xmlns="http://www.w3.org/2000/svg" xmlns:xlink="http://www.w3.org/1999/xlink" x="0px" y="0px"
	 width="512px" height="512px" viewBox="0 0 512 512" enable-background="new 0 0 512 512" xml:space="preserve">
<path id="bar_chart_6_icon" fill="#015367" d="M367.625,97.795l33.424,33.424l-17.061,16.654l-33.557-33.557L367.625,97.795z
	 M336.01,128.18l-17.703,17.013l33.803,33.803l17.566-17.148L336.01,128.18z M62.344,462h107.084V358.065H62.344V462z
	 M363.092,64.978l70.204,70.203L449.656,50L363.092,64.978z M339.504,462h108.134V241.533H339.504V462z M337.795,192.966
	l-33.909-33.911l-54.37,52.253l-47.869-45.256L67.632,299.57l32.969,32.423l99.657-99.652l49.362,46.704L337.795,192.966z
	 M200.923,462h108.137V308.723H200.923V462z"/>
</svg>
